<?xml version="1.0" encoding="UTF-8"?>
<svg id="Layer_1" data-name="Layer 1" xmlns="http://www.w3.org/2000/svg" viewBox="0 0 140 140">
  <defs>
    <style>
      .cls-1 {
        fill: #fff;
      }

      .cls-2 {
        fill: #bb99ed;
      }
    </style>
  </defs>
  <path class="cls-1" d="m106.14,95.77h-13.41c-.96,0-1.73.78-1.73,1.73v13.02c0,.96-.78,1.73-1.73,1.73h-9.05c-.96,0-1.73-.78-1.73-1.73v-13.01c0-.96-.78-1.73-1.73-1.73h-13.44c-.96,0-1.73.78-1.73,1.73v12.86c0,.96-.78,1.73-1.73,1.73h-9.05c-.96,0-1.73-.78-1.73-1.73v-12.86c0-.96-.78-1.73-1.73-1.73h-13.6c-.96,0-1.73.78-1.73,1.73v29.75c0,.96.78,1.73,1.73,1.73h72.4c.96,0,1.73-.78,1.73-1.73v-29.75c0-.96-.78-1.73-1.73-1.73Z"/>
  <path class="cls-2" d="m106.24,74.09h-13.42s0,0,0,0h0c-.95,0-1.73.77-1.73,1.73h0v13.43h0c0,.96.77,1.73,1.73,1.73h13.43c.95,0,1.73-.77,1.73-1.73h0v-13.43h0c0-.96-.77-1.73-1.73-1.73h0s0,0,0,0Z"/>
  <path class="cls-1" d="m33.74,90.98h50.82c.96,0,1.73-.78,1.73-1.73v-13.42c0-.96-.78-1.73-1.73-1.73h-33.97c-.96,0-1.73-.78-1.73-1.73V13.14c0-.96-.78-1.73-1.73-1.73h-13.38c-.96,0-1.73.78-1.73,1.73v76.11c0,.96.78,1.73,1.73,1.73Z"/>
  <path class="cls-1" d="m106.35,40.67h-26.1c-.91,0-1.65-.74-1.65-1.65v-9.3c0-.91.74-1.65,1.65-1.65h25.63c.91,0,1.64-.74,1.64-1.64v-13.76c0-.91-.74-1.64-1.64-1.64h-42.54c-.99,0-1.79.8-1.79,1.79v54.46c0,.91.74,1.64,1.64,1.64h13.76c.91,0,1.64-.74,1.64-1.64v-8.21c0-.91.74-1.64,1.64-1.64h26.11c.91,0,1.64-.74,1.64-1.64v-13.45c0-.91-.74-1.64-1.64-1.64Z"/>
</svg>